<svg width="22" height="22" viewBox="0 0 22 22" fill="none" xmlns="http://www.w3.org/2000/svg">
<path d="M14.0833 20.75H7.41667M14.0833 20.75V11.4162C14.0833 11.2393 14.0131 11.0698 13.8881 10.9447C13.763 10.8197 13.5935 10.7495 13.4167 10.7495H8.08333C7.90652 10.7495 7.73695 10.8197 7.61193 10.9447C7.4869 11.0698 7.41667 11.2393 7.41667 11.4162V20.75M14.0833 20.75H20.0833C20.2601 20.75 20.4297 20.6798 20.5547 20.5547C20.6798 20.4297 20.75 20.2601 20.75 20.0833V17.5276C20.75 17.3508 20.6798 17.1812 20.5547 17.0562C20.4297 16.9311 20.2601 16.8609 20.0833 16.8609H14.75C14.5732 16.8609 14.4036 16.9311 14.2786 17.0562C14.1536 17.1812 14.0833 17.3508 14.0833 17.5276V20.75ZM7.41667 20.75V15.3053C7.41667 15.1284 7.34643 14.9589 7.22141 14.8338C7.09638 14.7088 6.92681 14.6386 6.75 14.6386H1.41667C1.23986 14.6386 1.07029 14.7088 0.945262 14.8338C0.820238 14.9589 0.75 15.1284 0.75 15.3053V20.0833C0.75 20.2601 0.820238 20.4297 0.945262 20.5547C1.07029 20.6798 1.23986 20.75 1.41667 20.75H7.41667ZM9.42333 3.09684L10.4333 0.95561C10.4606 0.894399 10.505 0.842402 10.5612 0.805911C10.6174 0.76942 10.683 0.75 10.75 0.75C10.817 0.75 10.8826 0.76942 10.9388 0.805911C10.995 0.842402 11.0394 0.894399 11.0667 0.95561L12.0778 3.09684L14.3356 3.44241C14.6256 3.48686 14.7411 3.86021 14.5311 4.07355L12.8978 5.74031L13.2833 8.09377C13.3322 8.39601 13.03 8.62713 12.77 8.48379L10.75 7.37262L8.73 8.48379C8.47111 8.62602 8.16778 8.39601 8.21667 8.09377L8.60222 5.74031L6.96889 4.07355C6.75778 3.86021 6.87445 3.48686 7.16333 3.44241L9.42333 3.09684Z" stroke="#B1B1B1" stroke-width="1.5" stroke-linecap="round" stroke-linejoin="round"/>
</svg>
