<svg width="21" height="25" viewBox="0 0 21 25" fill="none" xmlns="http://www.w3.org/2000/svg">
<path d="M10.2711 12.0426C11.9255 12.0426 13.3581 11.4492 14.5287 10.2785C15.6992 9.10793 16.2926 7.67571 16.2926 6.02109C16.2926 4.36705 15.6992 2.93463 14.5285 1.76372C13.3577 0.593374 11.9253 0 10.2711 0C8.61645 0 7.18422 0.593374 6.01368 1.76391C4.84314 2.93444 4.24957 4.36686 4.24957 6.02109C4.24957 7.67571 4.84314 9.10813 6.01387 10.2787C7.1846 11.449 8.61702 12.0426 10.2711 12.0426Z" fill="#B1B1B1"/>
<path d="M20.8071 19.2237C20.7733 18.7366 20.705 18.2052 20.6045 17.644C20.503 17.0787 20.3724 16.5443 20.216 16.0558C20.0544 15.5509 19.8347 15.0523 19.5631 14.5746C19.2812 14.0786 18.9501 13.6468 18.5785 13.2915C18.19 12.9197 17.7143 12.6209 17.1642 12.4029C16.6161 12.186 16.0086 12.0761 15.3587 12.0761C15.1035 12.0761 14.8567 12.1808 14.3801 12.4912C14.0867 12.6825 13.7436 12.9037 13.3606 13.1484C13.0331 13.3571 12.5895 13.5526 12.0415 13.7296C11.5068 13.9026 10.964 13.9903 10.4282 13.9903C9.89246 13.9903 9.34982 13.9026 8.81462 13.7296C8.26721 13.5528 7.82356 13.3573 7.49645 13.1486C7.11708 12.9062 6.77376 12.685 6.47602 12.491C5.99995 12.1807 5.75294 12.0759 5.49774 12.0759C4.84772 12.0759 4.24042 12.186 3.69244 12.403C3.14274 12.6207 2.66685 12.9196 2.27795 13.2917C1.90659 13.6472 1.57528 14.0788 1.29375 14.5746C1.02234 15.0523 0.802612 15.5507 0.640869 16.056C0.484657 16.5445 0.354004 17.0787 0.252533 17.644C0.152016 18.2044 0.0837326 18.736 0.0499726 19.2243C0.0167847 19.7026 0 20.1991 0 20.7006C0 22.0056 0.414848 23.062 1.23291 23.8412C2.04086 24.61 3.10993 25.0001 4.40998 25.0001H16.4476C17.7477 25.0001 18.8164 24.6102 19.6245 23.8412C20.4428 23.0626 20.8576 22.0059 20.8576 20.7004C20.8574 20.1966 20.8405 19.6998 20.8071 19.2237Z" fill="#B1B1B1"/>
</svg>
