<svg width="22" height="18" viewBox="0 0 22 18" fill="none" xmlns="http://www.w3.org/2000/svg">
<path d="M16.75 16.75L20.574 12.926C20.6866 12.8136 20.7499 12.6611 20.75 12.502V7.25C20.75 6.85218 20.592 6.47064 20.3107 6.18934C20.0294 5.90804 19.6478 5.75 19.25 5.75C18.8522 5.75 18.4706 5.90804 18.1893 6.18934C17.908 6.47064 17.75 6.85218 17.75 7.25V11.75M16.75 12.75L17.608 11.892C17.6533 11.8471 17.6891 11.7937 17.7135 11.7348C17.7379 11.6759 17.7503 11.6127 17.75 11.549C17.7493 11.4592 17.7239 11.3713 17.6767 11.295C17.6294 11.2186 17.5621 11.1567 17.482 11.116L17.039 10.895C16.6637 10.7073 16.2389 10.6425 15.8247 10.7096C15.4104 10.7767 15.0278 10.9724 14.731 11.269L13.836 12.164C13.4609 12.539 13.2501 13.0476 13.25 13.578V16.75M4.75 16.75L0.926 12.926C0.813446 12.8136 0.75014 12.6611 0.75 12.502V7.25C0.75 6.85218 0.908035 6.47064 1.18934 6.18934C1.47064 5.90804 1.85218 5.75 2.25 5.75C2.64782 5.75 3.02936 5.90804 3.31066 6.18934C3.59196 6.47064 3.75 6.85218 3.75 7.25V11.75M4.75 12.75L3.892 11.892C3.8024 11.8001 3.75156 11.6773 3.75 11.549C3.75 11.366 3.854 11.199 4.018 11.116L4.461 10.895C4.83631 10.7073 5.26114 10.6425 5.67534 10.7096C6.08955 10.7767 6.47216 10.9724 6.769 11.269L7.664 12.164C8.0391 12.539 8.24989 13.0476 8.25 13.578V16.75M12.417 8.75H9.083V6.417H6.75V3.083H9.083V0.75H12.417V3.083H14.75V6.417H12.417V8.75Z" stroke="#B1B1B1" stroke-width="1.5" stroke-linecap="round" stroke-linejoin="round"/>
</svg>
