<svg width="22" height="20" viewBox="0 0 22 20" fill="none" xmlns="http://www.w3.org/2000/svg">
<path d="M0.75 18.75H15.75M19.75 18.75H20.75M0.75 14.15V1.35C0.75 1.19087 0.813214 1.03826 0.925736 0.925736C1.03826 0.813214 1.19087 0.75 1.35 0.75H20.15C20.3091 0.75 20.4617 0.813214 20.5743 0.925736C20.6868 1.03826 20.75 1.19087 20.75 1.35V14.15C20.75 14.3091 20.6868 14.4617 20.5743 14.5743C20.4617 14.6868 20.3091 14.75 20.15 14.75H1.35C1.19087 14.75 1.03826 14.6868 0.925736 14.5743C0.813214 14.4617 0.75 14.3091 0.75 14.15Z" stroke="#B1B1B1" stroke-width="1.5" stroke-linecap="round"/>
</svg>
