<svg width="18" height="20" viewBox="0 0 18 20" fill="none" xmlns="http://www.w3.org/2000/svg">
<path d="M0.75 16.75V2.75C0.75 2.21957 0.960714 1.71086 1.33579 1.33579C1.71086 0.960714 2.21957 0.75 2.75 0.75H16.15C16.3091 0.75 16.4617 0.813214 16.5743 0.925736C16.6868 1.03826 16.75 1.19087 16.75 1.35V14.464" fill="#B1B1B1"/>
<path d="M4.75 0.75V8.75L7.25 7.15L9.75 8.75V0.75" fill="#B1B1B1"/>
<path d="M2.75 14.75H16.75ZM2.75 18.75H16.75Z" fill="#B1B1B1"/>
<path d="M2.75 18.75C2.21957 18.75 1.71086 18.5393 1.33579 18.1642C0.960714 17.7891 0.75 17.2804 0.75 16.75C0.75 16.2196 0.960714 15.7109 1.33579 15.3358C1.71086 14.9607 2.21957 14.75 2.75 14.75" fill="#B1B1B1"/>
<path d="M0.75 16.75H0H0.75ZM2.75 0.75V0V0.75ZM16.15 0.75V1.5V0.75ZM16.75 1.35H17.5H16.75ZM16 14.464C16 14.8782 16.3358 15.214 16.75 15.214C17.1642 15.214 17.5 14.8782 17.5 14.464H16.75H16ZM5.5 0.75C5.5 0.335786 5.16421 0 4.75 0C4.33579 0 4 0.335786 4 0.75H4.75H5.5ZM4.75 8.75H4C4 9.02408 4.14951 9.27634 4.38994 9.40792C4.63038 9.5395 4.92344 9.52945 5.15429 9.3817L4.75 8.75ZM7.25 7.15L7.65429 6.5183C7.40784 6.36057 7.09216 6.36057 6.84571 6.5183L7.25 7.15ZM9.75 8.75L9.34571 9.3817C9.57656 9.52945 9.86962 9.5395 10.1101 9.40792C10.3505 9.27634 10.5 9.02408 10.5 8.75H9.75ZM10.5 0.75C10.5 0.335786 10.1642 0 9.75 0C9.33579 0 9 0.335786 9 0.75H9.75H10.5ZM16.75 15.5C17.1642 15.5 17.5 15.1642 17.5 14.75C17.5 14.3358 17.1642 14 16.75 14V14.75V15.5ZM16.75 19.5C17.1642 19.5 17.5 19.1642 17.5 18.75C17.5 18.3358 17.1642 18 16.75 18V18.75V19.5ZM0.75 16.75H1.5V2.75H0.75H0V16.75H0.75ZM0.75 2.75H1.5C1.5 2.41848 1.6317 2.10054 1.86612 1.86612L1.33579 1.33579L0.805456 0.805456C0.289731 1.32118 0 2.02065 0 2.75H0.75ZM1.33579 1.33579L1.86612 1.86612C2.10054 1.6317 2.41848 1.5 2.75 1.5V0.75V0C2.02065 0 1.32118 0.289731 0.805456 0.805456L1.33579 1.33579ZM2.75 0.75V1.5H16.15V0.75V0H2.75V0.75ZM16.15 0.75V1.5C16.1102 1.5 16.0721 1.4842 16.0439 1.45607L16.5743 0.925736L17.1046 0.395406C16.8514 0.142231 16.508 0 16.15 0V0.75ZM16.5743 0.925736L16.0439 1.45607C16.0158 1.42793 16 1.38978 16 1.35H16.75H17.5C17.5 0.991959 17.3578 0.648581 17.1046 0.395406L16.5743 0.925736ZM16.75 1.35H16V14.464H16.75H17.5V1.35H16.75ZM4.75 0.75H4V8.75H4.75H5.5V0.75H4.75ZM4.75 8.75L5.15429 9.3817L7.65429 7.7817L7.25 7.15L6.84571 6.5183L4.34571 8.1183L4.75 8.75ZM7.25 7.15L6.84571 7.7817L9.34571 9.3817L9.75 8.75L10.1543 8.1183L7.65429 6.5183L7.25 7.15ZM9.75 8.75H10.5V0.75H9.75H9V8.75H9.75ZM2.75 14.75V15.5H16.75V14.75V14H2.75V14.75ZM2.75 18.75V19.5H16.75V18.75V18H2.75V18.75ZM2.75 18.75V18C2.41848 18 2.10054 17.8683 1.86612 17.6339L1.33579 18.1642L0.805456 18.6945C1.32118 19.2103 2.02065 19.5 2.75 19.5V18.75ZM1.33579 18.1642L1.86612 17.6339C1.6317 17.3995 1.5 17.0815 1.5 16.75H0.75H0C0 17.4793 0.289731 18.1788 0.805456 18.6945L1.33579 18.1642ZM0.75 16.75H1.5C1.5 16.4185 1.6317 16.1005 1.86612 15.8661L1.33579 15.3358L0.805456 14.8055C0.289731 15.3212 0 16.0207 0 16.75H0.75ZM1.33579 15.3358L1.86612 15.8661C2.10054 15.6317 2.41848 15.5 2.75 15.5V14.75V14C2.02065 14 1.32118 14.2897 0.805456 14.8055L1.33579 15.3358Z" fill="#B1B1B1"/>
</svg>
