<svg width="34" height="33" viewBox="0 0 34 33" fill="none" xmlns="http://www.w3.org/2000/svg">
<path d="M24.5662 17.9231V16.0399C24.9412 15.7414 25.1557 15.3102 25.1557 14.8484C25.1557 14.1957 24.715 13.6046 24.0587 13.3772L17.9986 11.2764C17.1776 10.9917 16.2634 10.9932 15.4445 11.2799L9.44478 13.3782C8.79168 13.6066 8.35205 14.1972 8.35205 14.8479C8.35205 15.4977 8.79168 16.0883 9.44478 16.3162L11.689 17.1017L11.6938 19.8917C11.7982 21.3668 14.3041 22.14 16.7253 22.14C19.1464 22.14 21.6524 21.3683 21.7573 19.8848L21.7615 17.116L23.7102 16.4395V17.9241C23.4215 18.119 23.2377 18.4989 23.2377 18.9182C23.2377 19.4723 23.2377 20.0451 24.1376 20.0451C25.037 20.0451 25.037 19.4723 25.037 18.9182C25.0386 18.4984 24.8554 18.118 24.5662 17.9231ZM13.0016 17.561L15.4445 18.4155C16.2629 18.7026 17.1787 18.7036 18.0002 18.4199L20.4511 17.5689V19.7994C20.4511 20.1808 19.0008 20.9129 16.7263 20.9129C14.4529 20.9129 13.0021 20.1823 13.0021 19.7994L13.0016 17.561ZM16.0987 17.1535L11.0894 15.402C11.0444 15.3862 10.9888 15.3684 10.9263 15.3492C10.6392 15.2599 10.1042 15.0936 10.1042 14.8489C10.1042 14.5993 10.6149 14.4434 10.9194 14.3496C10.9846 14.3299 11.0423 14.3116 11.0894 14.2959L16.0976 12.5429C16.2994 12.4719 16.5107 12.4368 16.7253 12.4368C16.9393 12.4368 17.1485 12.4714 17.3487 12.5409L22.4077 14.2954C22.4485 14.3097 22.4988 14.3259 22.555 14.3427C22.8304 14.431 23.404 14.6111 23.404 14.8489C23.404 14.9446 23.2361 15.1168 22.4072 15.4025L17.3492 17.1559C16.9483 17.2951 16.5007 17.2941 16.0987 17.1535Z" fill="url(#paint0_linear_2432_24)"/>
<path fill-rule="evenodd" clip-rule="evenodd" d="M25.4801 7.09257L25.9916 10.4115C26.1476 11.424 25.438 12.322 24.4066 12.4173C23.3752 12.5125 22.4126 11.7689 22.2566 10.7564L21.0579 2.97829C20.9018 1.96577 21.6114 1.06775 22.6428 0.972483L30.566 0.240772C31.5974 0.145491 32.5601 0.889122 32.7161 1.90161C32.8721 2.9141 32.1625 3.81212 31.1311 3.90741L27.6929 4.225C34.7261 10.142 36.1014 20.2135 30.6829 27.0707C27.9952 30.472 24.0374 32.5572 19.6523 32.9906C18.6219 33.0924 17.6547 32.3545 17.492 31.3427C17.3292 30.3309 18.0326 29.428 19.0629 29.3263C22.4766 28.9889 25.55 27.3696 27.6422 24.7219C31.8143 19.4421 30.808 11.7123 25.4801 7.09257ZM6.30719 28.7772C-0.726143 22.8601 -2.10141 12.7887 3.31718 5.93149C6.01027 2.52338 9.97861 0.436635 14.3737 0.00910522C15.4044 -0.0911502 16.3705 0.647983 16.5316 1.66002C16.6927 2.67205 15.9879 3.57375 14.9573 3.674C11.5359 4.00682 8.45417 5.62734 6.35781 8.2803C2.18571 13.5601 3.19206 21.2899 8.51995 25.9097L8.00847 22.5907C7.85239 21.5782 8.56205 20.6802 9.59343 20.585C10.6248 20.4897 11.5874 21.2333 11.7435 22.2458L12.9422 30.0239C13.0982 31.0364 12.3885 31.9345 11.3572 32.0297L3.43401 32.7614C2.40267 32.8567 1.44001 32.113 1.28398 31.1006C1.1279 30.0881 1.83756 29.19 2.86894 29.0948L6.30719 28.7772Z" fill="url(#paint1_linear_2432_24)"/>
<defs>
<linearGradient id="paint0_linear_2432_24" x1="16.7539" y1="11.0639" x2="16.7539" y2="22.14" gradientUnits="userSpaceOnUse">
<stop stop-color="#1814F3"/>
<stop offset="1" stop-color="#006FFF"/>
</linearGradient>
<linearGradient id="paint1_linear_2432_24" x1="17" y1="0" x2="17" y2="33" gradientUnits="userSpaceOnUse">
<stop stop-color="#1769BB"/>
<stop offset="1" stop-color="#0B3055"/>
</linearGradient>
</defs>
</svg>
